<svg xmlns="http://www.w3.org/2000/svg" xmlns:xlink="http://www.w3.org/1999/xlink" width="500" height="500" preserveAspectRatio="xMidYMid meet" version="1.0" viewBox="0 0 375 375" zoomAndPan="magnify"><defs><clipPath id="0094d61a3c"><path d="M 42.625 47.238281 L 281.683594 47.238281 L 281.683594 286.300781 L 42.625 286.300781 Z M 42.625 47.238281" clip-rule="nonzero"/></clipPath><clipPath id="a2d0f9b6a5"><path d="M 35.683594 40.296875 L 289.328125 40.296875 L 289.328125 293.945312 L 35.683594 293.945312 Z M 35.683594 40.296875" clip-rule="nonzero"/></clipPath><clipPath id="a4dfa19fd3"><path d="M 41.171875 231.296875 L 108.203125 231.296875 L 108.203125 298.328125 L 41.171875 298.328125 Z M 41.171875 231.296875" clip-rule="nonzero"/></clipPath><clipPath id="d160030b00"><path d="M 74.6875 231.296875 C 56.179688 231.296875 41.171875 246.304688 41.171875 264.8125 C 41.171875 283.324219 56.179688 298.328125 74.6875 298.328125 C 93.199219 298.328125 108.203125 283.324219 108.203125 264.8125 C 108.203125 246.304688 93.199219 231.296875 74.6875 231.296875 Z M 74.6875 231.296875" clip-rule="nonzero"/></clipPath><clipPath id="e0f379cf38"><path d="M 55.769531 245.894531 L 93.605469 245.894531 L 93.605469 283.730469 L 55.769531 283.730469 Z M 55.769531 245.894531" clip-rule="nonzero"/></clipPath><clipPath id="5c2fee9302"><path d="M 74.6875 245.894531 C 64.238281 245.894531 55.769531 254.367188 55.769531 264.8125 C 55.769531 275.261719 64.238281 283.730469 74.6875 283.730469 C 85.136719 283.730469 93.605469 275.261719 93.605469 264.8125 C 93.605469 254.367188 85.136719 245.894531 74.6875 245.894531 Z M 74.6875 245.894531" clip-rule="nonzero"/></clipPath><clipPath id="80a8c9d5af"><path d="M 208.695312 16.523438 L 298.289062 16.523438 L 298.289062 106.121094 L 208.695312 106.121094 Z M 208.695312 16.523438" clip-rule="nonzero"/></clipPath><clipPath id="6931dd03fa"><path d="M 253.492188 16.523438 C 228.75 16.523438 208.695312 36.582031 208.695312 61.320312 C 208.695312 86.0625 228.75 106.121094 253.492188 106.121094 C 278.234375 106.121094 298.289062 86.0625 298.289062 61.320312 C 298.289062 36.582031 278.234375 16.523438 253.492188 16.523438 Z M 253.492188 16.523438" clip-rule="nonzero"/></clipPath><clipPath id="d5bb531b0e"><path d="M 220.34375 28.171875 L 286.640625 28.171875 L 286.640625 94.472656 L 220.34375 94.472656 Z M 220.34375 28.171875" clip-rule="nonzero"/></clipPath><clipPath id="bcda3cbde2"><path d="M 253.492188 28.171875 C 235.183594 28.171875 220.34375 43.015625 220.34375 61.320312 C 220.34375 79.628906 235.183594 94.472656 253.492188 94.472656 C 271.800781 94.472656 286.640625 79.628906 286.640625 61.320312 C 286.640625 43.015625 271.800781 28.171875 253.492188 28.171875 Z M 253.492188 28.171875" clip-rule="nonzero"/></clipPath><clipPath id="4a49451b9f"><path d="M 175.683594 185.976562 L 348.183594 185.976562 L 348.183594 358.476562 L 175.683594 358.476562 Z M 175.683594 185.976562" clip-rule="nonzero"/></clipPath><clipPath id="c03b84da54"><path d="M 261.933594 185.976562 C 214.300781 185.976562 175.683594 224.589844 175.683594 272.226562 C 175.683594 319.859375 214.300781 358.476562 261.933594 358.476562 C 309.570312 358.476562 348.183594 319.859375 348.183594 272.226562 C 348.183594 224.589844 309.570312 185.976562 261.933594 185.976562 Z M 261.933594 185.976562" clip-rule="nonzero"/></clipPath><clipPath id="7af2db1940"><path d="M 191.355469 201.644531 L 332.515625 201.644531 L 332.515625 342.804688 L 191.355469 342.804688 Z M 191.355469 201.644531" clip-rule="nonzero"/></clipPath><clipPath id="18c4955d0f"><path d="M 261.933594 201.644531 C 222.953125 201.644531 191.355469 233.246094 191.355469 272.226562 C 191.355469 311.207031 222.953125 342.804688 261.933594 342.804688 C 300.914062 342.804688 332.515625 311.207031 332.515625 272.226562 C 332.515625 233.246094 300.914062 201.644531 261.933594 201.644531 Z M 261.933594 201.644531" clip-rule="nonzero"/></clipPath><clipPath id="3a12017ff5"><path d="M 26.816406 37.347656 L 70.96875 37.347656 L 70.96875 81.5 L 26.816406 81.5 Z M 26.816406 37.347656" clip-rule="nonzero"/></clipPath><clipPath id="352e916b47"><path d="M 48.890625 37.347656 L 55.914062 52.398438 L 70.96875 59.425781 L 55.914062 66.449219 L 48.890625 81.5 L 41.867188 66.449219 L 26.816406 59.425781 L 41.867188 52.398438 Z M 48.890625 37.347656" clip-rule="nonzero"/></clipPath><clipPath id="2f8bab1c0f"><path d="M 40.996094 51.527344 L 56.789062 51.527344 L 56.789062 67.320312 L 40.996094 67.320312 Z M 40.996094 51.527344" clip-rule="nonzero"/></clipPath><clipPath id="125d826770"><path d="M 48.890625 51.527344 L 51.402344 56.910156 L 56.789062 59.425781 L 51.402344 61.9375 L 48.890625 67.320312 L 46.378906 61.9375 L 40.996094 59.425781 L 46.378906 56.910156 Z M 48.890625 51.527344" clip-rule="nonzero"/></clipPath><clipPath id="78ae04a1f0"><path d="M 217.621094 224.046875 L 298.65625 224.046875 L 298.65625 325.34375 L 217.621094 325.34375 Z M 217.621094 224.046875" clip-rule="nonzero"/></clipPath></defs><g clip-path="url(#0094d61a3c)"><path fill="#f5df7c" fill-opacity="1" fill-rule="nonzero" d="M 281.53125 166.695312 C 281.53125 168.648438 281.484375 170.601562 281.390625 172.554688 C 281.292969 174.507812 281.148438 176.457031 280.957031 178.402344 C 280.765625 180.347656 280.527344 182.289062 280.238281 184.222656 C 279.953125 186.15625 279.617188 188.082031 279.238281 190 C 278.855469 191.917969 278.429688 193.824219 277.953125 195.71875 C 277.476562 197.617188 276.957031 199.5 276.390625 201.371094 C 275.820312 203.242188 275.207031 205.097656 274.550781 206.9375 C 273.890625 208.777344 273.1875 210.601562 272.441406 212.40625 C 271.691406 214.214844 270.898438 216 270.0625 217.769531 C 269.226562 219.535156 268.347656 221.28125 267.425781 223.003906 C 266.507812 224.730469 265.542969 226.429688 264.539062 228.105469 C 263.53125 229.78125 262.488281 231.433594 261.402344 233.058594 C 260.316406 234.683594 259.1875 236.28125 258.023438 237.851562 C 256.859375 239.421875 255.65625 240.964844 254.417969 242.476562 C 253.175781 243.988281 251.902344 245.464844 250.589844 246.914062 C 249.273438 248.363281 247.925781 249.777344 246.546875 251.160156 C 245.164062 252.542969 243.746094 253.890625 242.300781 255.203125 C 240.851562 256.515625 239.371094 257.792969 237.859375 259.035156 C 236.347656 260.273438 234.808594 261.476562 233.238281 262.640625 C 231.667969 263.804688 230.070312 264.929688 228.445312 266.015625 C 226.816406 267.101562 225.167969 268.148438 223.488281 269.152344 C 221.8125 270.160156 220.113281 271.121094 218.386719 272.042969 C 216.664062 272.964844 214.917969 273.84375 213.152344 274.679688 C 211.382812 275.515625 209.597656 276.308594 207.792969 277.054688 C 205.984375 277.804688 204.160156 278.507812 202.320312 279.167969 C 200.480469 279.824219 198.625 280.4375 196.753906 281.003906 C 194.882812 281.574219 193 282.09375 191.101562 282.570312 C 189.207031 283.042969 187.300781 283.472656 185.382812 283.855469 C 183.464844 284.234375 181.539062 284.570312 179.605469 284.855469 C 177.671875 285.144531 175.730469 285.382812 173.785156 285.574219 C 171.839844 285.765625 169.890625 285.910156 167.9375 286.003906 C 165.988281 286.101562 164.03125 286.148438 162.078125 286.148438 C 160.121094 286.148438 158.167969 286.101562 156.214844 286.003906 C 154.265625 285.910156 152.316406 285.765625 150.371094 285.574219 C 148.421875 285.382812 146.484375 285.144531 144.550781 284.855469 C 142.617188 284.570312 140.691406 284.234375 138.773438 283.855469 C 136.855469 283.472656 134.949219 283.042969 133.054688 282.570312 C 131.15625 282.09375 129.273438 281.574219 127.402344 281.003906 C 125.53125 280.4375 123.675781 279.824219 121.835938 279.167969 C 119.996094 278.507812 118.171875 277.804688 116.363281 277.054688 C 114.558594 276.308594 112.773438 275.515625 111.003906 274.679688 C 109.238281 273.84375 107.492188 272.964844 105.765625 272.042969 C 104.042969 271.121094 102.34375 270.160156 100.664062 269.152344 C 98.988281 268.148438 97.339844 267.101562 95.710938 266.015625 C 94.085938 264.929688 92.488281 263.804688 90.917969 262.640625 C 89.347656 261.476562 87.808594 260.273438 86.296875 259.035156 C 84.785156 257.792969 83.304688 256.515625 81.855469 255.203125 C 80.410156 253.890625 78.992188 252.542969 77.609375 251.160156 C 76.226562 249.777344 74.878906 248.363281 73.566406 246.914062 C 72.253906 245.464844 70.976562 243.988281 69.738281 242.476562 C 68.5 240.964844 67.296875 239.421875 66.132812 237.851562 C 64.964844 236.28125 63.839844 234.683594 62.753906 233.058594 C 61.667969 231.433594 60.625 229.78125 59.617188 228.105469 C 58.613281 226.429688 57.648438 224.730469 56.726562 223.003906 C 55.808594 221.28125 54.929688 219.535156 54.09375 217.769531 C 53.257812 216 52.464844 214.214844 51.714844 212.40625 C 50.96875 210.601562 50.265625 208.777344 49.605469 206.9375 C 48.949219 205.097656 48.335938 203.242188 47.765625 201.371094 C 47.199219 199.5 46.679688 197.617188 46.203125 195.71875 C 45.726562 193.824219 45.300781 191.917969 44.917969 190 C 44.539062 188.082031 44.203125 186.15625 43.917969 184.222656 C 43.628906 182.289062 43.390625 180.347656 43.199219 178.402344 C 43.007812 176.457031 42.863281 174.507812 42.765625 172.554688 C 42.671875 170.601562 42.625 168.648438 42.625 166.695312 C 42.625 164.738281 42.671875 162.785156 42.765625 160.832031 C 42.863281 158.878906 43.007812 156.929688 43.199219 154.984375 C 43.390625 153.039062 43.628906 151.101562 43.917969 149.167969 C 44.203125 147.234375 44.539062 145.308594 44.917969 143.390625 C 45.300781 141.472656 45.726562 139.566406 46.203125 137.667969 C 46.679688 135.773438 47.199219 133.890625 47.765625 132.019531 C 48.335938 130.148438 48.949219 128.292969 49.605469 126.453125 C 50.265625 124.609375 50.96875 122.789062 51.714844 120.980469 C 52.464844 119.175781 53.257812 117.386719 54.09375 115.621094 C 54.929688 113.855469 55.808594 112.109375 56.726562 110.382812 C 57.648438 108.660156 58.613281 106.960938 59.617188 105.28125 C 60.625 103.605469 61.667969 101.953125 62.753906 100.328125 C 63.839844 98.703125 64.964844 97.105469 66.132812 95.535156 C 67.296875 93.964844 68.5 92.425781 69.738281 90.914062 C 70.976562 89.402344 72.253906 87.921875 73.566406 86.472656 C 74.878906 85.023438 76.226562 83.609375 77.609375 82.226562 C 78.992188 80.84375 80.410156 79.496094 81.855469 78.183594 C 83.304688 76.871094 84.785156 75.59375 86.296875 74.355469 C 87.808594 73.113281 89.347656 71.910156 90.917969 70.746094 C 92.488281 69.582031 94.085938 68.457031 95.710938 67.371094 C 97.339844 66.285156 98.988281 65.238281 100.664062 64.234375 C 102.34375 63.230469 104.042969 62.265625 105.765625 61.34375 C 107.492188 60.421875 109.238281 59.542969 111.003906 58.707031 C 112.773438 57.871094 114.558594 57.082031 116.363281 56.332031 C 118.171875 55.585938 119.996094 54.882812 121.835938 54.222656 C 123.675781 53.5625 125.53125 52.949219 127.402344 52.382812 C 129.273438 51.816406 131.15625 51.292969 133.054688 50.820312 C 134.949219 50.34375 136.855469 49.917969 138.773438 49.535156 C 140.691406 49.152344 142.617188 48.820312 144.550781 48.53125 C 146.484375 48.246094 148.421875 48.007812 150.371094 47.816406 C 152.316406 47.625 154.265625 47.480469 156.214844 47.382812 C 158.167969 47.289062 160.121094 47.238281 162.078125 47.238281 C 164.03125 47.238281 165.988281 47.289062 167.9375 47.382812 C 169.890625 47.480469 171.839844 47.625 173.785156 47.816406 C 175.730469 48.007812 177.671875 48.246094 179.605469 48.53125 C 181.539062 48.820312 183.464844 49.152344 185.382812 49.535156 C 187.300781 49.917969 189.207031 50.34375 191.101562 50.820312 C 193 51.292969 194.882812 51.816406 196.753906 52.382812 C 198.625 52.949219 200.480469 53.5625 202.320312 54.222656 C 204.160156 54.882812 205.984375 55.585938 207.792969 56.332031 C 209.597656 57.082031 211.382812 57.871094 213.152344 58.707031 C 214.917969 59.542969 216.664062 60.421875 218.386719 61.34375 C 220.113281 62.265625 221.8125 63.230469 223.488281 64.234375 C 225.167969 65.238281 226.816406 66.285156 228.445312 67.371094 C 230.070312 68.457031 231.667969 69.582031 233.238281 70.746094 C 234.808594 71.910156 236.347656 73.113281 237.859375 74.355469 C 239.371094 75.59375 240.851562 76.871094 242.300781 78.183594 C 243.746094 79.496094 245.164062 80.84375 246.546875 82.226562 C 247.925781 83.609375 249.273438 85.023438 250.589844 86.472656 C 251.902344 87.921875 253.175781 89.402344 254.417969 90.914062 C 255.65625 92.425781 256.859375 93.964844 258.023438 95.535156 C 259.1875 97.105469 260.316406 98.703125 261.402344 100.328125 C 262.488281 101.953125 263.53125 103.605469 264.539062 105.28125 C 265.542969 106.960938 266.507812 108.660156 267.425781 110.382812 C 268.347656 112.109375 269.226562 113.855469 270.0625 115.621094 C 270.898438 117.386719 271.691406 119.175781 272.441406 120.980469 C 273.1875 122.789062 273.890625 124.609375 274.550781 126.453125 C 275.207031 128.292969 275.820312 130.148438 276.390625 132.019531 C 276.957031 133.890625 277.476562 135.773438 277.953125 137.667969 C 278.429688 139.566406 278.855469 141.472656 279.238281 143.390625 C 279.617188 145.308594 279.953125 147.234375 280.238281 149.167969 C 280.527344 151.101562 280.765625 153.039062 280.957031 154.984375 C 281.148438 156.929688 281.292969 158.878906 281.390625 160.832031 C 281.484375 162.785156 281.53125 164.738281 281.53125 166.695312 Z M 281.53125 166.695312"/></g><g clip-path="url(#a2d0f9b6a5)"><path fill="#000" fill-opacity="1" fill-rule="nonzero" d="M 162.507812 293.945312 C 92.441406 293.945312 35.683594 236.796875 35.683594 167.121094 C 35.683594 97.449219 92.441406 40.296875 162.507812 40.296875 C 232.574219 40.296875 289.328125 97.054688 289.328125 167.121094 C 289.328125 237.1875 232.179688 293.945312 162.507812 293.945312 Z M 162.507812 48.125 C 96.746094 48.125 43.511719 101.363281 43.511719 167.121094 C 43.511719 232.882812 96.746094 286.117188 162.507812 286.117188 C 228.265625 286.117188 281.5 232.882812 281.5 167.121094 C 281.5 101.363281 227.875 48.125 162.507812 48.125 Z M 162.507812 48.125"/></g><path fill="none" stroke="#000" stroke-linecap="round" stroke-linejoin="miter" stroke-miterlimit="4" stroke-opacity="1" stroke-width="15" d="M 7.497821 7.499224 L 98.856705 7.499224" transform="matrix(0.810377, 0, 0, 0.810377, 67.392686, 80.086862)"/><path fill="none" stroke="#000" stroke-linecap="round" stroke-linejoin="miter" stroke-miterlimit="4" stroke-opacity="1" stroke-width="15" d="M 7.499522 7.499224 L 48.163456 7.499224" transform="matrix(0.810377, 0, 0, 0.810377, 162.082715, 80.086862)"/><path fill="none" stroke="#000" stroke-linecap="round" stroke-linejoin="miter" stroke-miterlimit="4" stroke-opacity="1" stroke-width="15" d="M 7.502181 7.500706 L 79.994464 7.500706" transform="matrix(0.810377, -0.000000000000000502, 0.000000000000000502, 0.810377, 110.48681, 109.695036)"/><path fill="none" stroke="#000" stroke-linecap="round" stroke-linejoin="miter" stroke-miterlimit="4" stroke-opacity="1" stroke-width="15" d="M 7.502208 7.499268 L 119.588322 7.499268" transform="matrix(0.810377, 0, 0, 0.810377, 39.756319, 138.180577)"/><path fill="none" stroke="#000" stroke-linecap="round" stroke-linejoin="miter" stroke-miterlimit="4" stroke-opacity="1" stroke-width="15" d="M 7.498253 7.499268 L 132.897997 7.499268" transform="matrix(0.810377, 0, 0, 0.810377, 171.111087, 138.180577)"/><path fill="none" stroke="#000" stroke-linecap="round" stroke-linejoin="miter" stroke-miterlimit="4" stroke-opacity="1" stroke-width="15" d="M 7.50136 7.499281 L 68.521362 7.499281" transform="matrix(0.810377, 0, 0, 0.810377, 36.589038, 172.063378)"/><path fill="none" stroke="#000" stroke-linecap="round" stroke-linejoin="miter" stroke-miterlimit="4" stroke-opacity="1" stroke-width="15" d="M 7.501738 7.499281 L 72.956404 7.499281" transform="matrix(0.810377, 0.000000000000000859, -0.000000000000000859, 0.810377, 129.483262, 172.063378)"/><path fill="none" stroke="#000" stroke-linecap="round" stroke-linejoin="miter" stroke-miterlimit="4" stroke-opacity="1" stroke-width="15" d="M 7.50206 7.499394 L 21.562835 7.499394" transform="matrix(0.810377, 0, 0, 0.810377, 47.416595, 207.301568)"/><path fill="none" stroke="#000" stroke-linecap="round" stroke-linejoin="miter" stroke-miterlimit="4" stroke-opacity="1" stroke-width="15" d="M 7.502211 7.499394 L 126.134273 7.499394" transform="matrix(0.810377, -0.000000000000000301, 0.000000000000000301, 0.810377, 86.389129, 207.301568)"/><path fill="none" stroke="#000" stroke-linecap="round" stroke-linejoin="miter" stroke-miterlimit="4" stroke-opacity="1" stroke-width="15" d="M 7.501885 7.499281 L 62.964097 7.499281" transform="matrix(0.810377, 0, 0, 0.810377, 227.783925, 172.063378)"/><path fill="none" stroke="#000" stroke-linecap="round" stroke-linejoin="miter" stroke-miterlimit="4" stroke-opacity="1" stroke-width="15" d="M 7.499755 7.498692 L 155.106557 7.498692" transform="matrix(0.810377, 0, 0, 0.810377, 125.660651, 239.306043)"/><path fill="none" stroke="#000" stroke-linecap="round" stroke-linejoin="miter" stroke-miterlimit="4" stroke-opacity="1" stroke-width="15" d="M 7.498532 7.501918 L 65.640823 7.501918" transform="matrix(0.810377, -0.000000000000001909, 0.000000000000001909, 0.810377, 102.712423, 268.420617)"/><g clip-path="url(#a4dfa19fd3)"><g clip-path="url(#d160030b00)"><path fill="#000" fill-opacity="1" fill-rule="nonzero" d="M 41.171875 231.296875 L 108.203125 231.296875 L 108.203125 298.328125 L 41.171875 298.328125 Z M 41.171875 231.296875"/></g></g><g clip-path="url(#e0f379cf38)"><g clip-path="url(#5c2fee9302)"><path fill="#cbac38" fill-opacity="1" fill-rule="nonzero" d="M 55.769531 245.894531 L 93.605469 245.894531 L 93.605469 283.730469 L 55.769531 283.730469 Z M 55.769531 245.894531"/></g></g><g clip-path="url(#80a8c9d5af)"><g clip-path="url(#6931dd03fa)"><path fill="#000" fill-opacity="1" fill-rule="nonzero" d="M 208.695312 16.523438 L 298.289062 16.523438 L 298.289062 106.121094 L 208.695312 106.121094 Z M 208.695312 16.523438"/></g></g><g clip-path="url(#d5bb531b0e)"><g clip-path="url(#bcda3cbde2)"><path fill="#cbac38" fill-opacity="1" fill-rule="nonzero" d="M 220.34375 28.171875 L 286.640625 28.171875 L 286.640625 94.472656 L 220.34375 94.472656 Z M 220.34375 28.171875"/></g></g><g clip-path="url(#4a49451b9f)"><g clip-path="url(#c03b84da54)"><path fill="#000" fill-opacity="1" fill-rule="nonzero" d="M 175.683594 185.976562 L 348.183594 185.976562 L 348.183594 358.476562 L 175.683594 358.476562 Z M 175.683594 185.976562"/></g></g><g clip-path="url(#7af2db1940)"><g clip-path="url(#18c4955d0f)"><path fill="#cbac38" fill-opacity="1" fill-rule="nonzero" d="M 191.355469 201.644531 L 332.515625 201.644531 L 332.515625 342.804688 L 191.355469 342.804688 Z M 191.355469 201.644531"/></g></g><path fill="#000" fill-opacity="1" fill-rule="nonzero" d="M 40.859375 228.941406 C 41.15625 229.238281 41.382812 229.578125 41.542969 229.964844 C 41.703125 230.351562 41.785156 230.753906 41.785156 231.171875 C 41.785156 231.589844 41.703125 231.992188 41.542969 232.378906 C 41.382812 232.761719 41.15625 233.105469 40.859375 233.398438 C 40.566406 233.695312 40.226562 233.921875 39.839844 234.082031 C 39.453125 234.242188 39.050781 234.324219 38.632812 234.324219 C 38.214844 234.324219 37.8125 234.242188 37.425781 234.082031 C 37.039062 233.921875 36.699219 233.695312 36.40625 233.398438 C 36.109375 233.105469 35.882812 232.761719 35.722656 232.378906 C 35.5625 231.992188 35.480469 231.589844 35.480469 231.171875 C 35.480469 230.753906 35.5625 230.351562 35.722656 229.964844 C 35.882812 229.578125 36.109375 229.238281 36.40625 228.941406 C 36.699219 228.648438 37.039062 228.421875 37.425781 228.261719 C 37.8125 228.101562 38.214844 228.019531 38.632812 228.019531 C 39.050781 228.019531 39.453125 228.101562 39.839844 228.261719 C 40.226562 228.421875 40.566406 228.648438 40.859375 228.941406 Z M 40.859375 228.941406"/><path fill="#000" fill-opacity="1" fill-rule="nonzero" d="M 166.703125 304.683594 C 167 304.980469 167.226562 305.320312 167.386719 305.707031 C 167.546875 306.089844 167.625 306.492188 167.625 306.910156 C 167.625 307.328125 167.546875 307.730469 167.386719 308.117188 C 167.226562 308.503906 167 308.84375 166.703125 309.140625 C 166.410156 309.433594 166.066406 309.664062 165.679688 309.824219 C 165.296875 309.984375 164.894531 310.0625 164.476562 310.0625 C 164.058594 310.0625 163.65625 309.984375 163.269531 309.824219 C 162.882812 309.664062 162.542969 309.433594 162.246094 309.140625 C 161.953125 308.84375 161.722656 308.503906 161.5625 308.117188 C 161.402344 307.730469 161.324219 307.328125 161.324219 306.910156 C 161.324219 306.492188 161.402344 306.089844 161.5625 305.707031 C 161.722656 305.320312 161.953125 304.980469 162.246094 304.683594 C 162.542969 304.386719 162.882812 304.160156 163.269531 304 C 163.65625 303.839844 164.058594 303.761719 164.476562 303.761719 C 164.894531 303.761719 165.296875 303.839844 165.679688 304 C 166.066406 304.160156 166.40625 304.386719 166.703125 304.683594 Z M 166.703125 304.683594"/><path fill="#000" fill-opacity="1" fill-rule="nonzero" d="M 307.285156 179.039062 C 307.582031 179.332031 307.808594 179.671875 307.96875 180.058594 C 308.128906 180.445312 308.207031 180.847656 308.207031 181.265625 C 308.207031 181.683594 308.128906 182.085938 307.96875 182.472656 C 307.808594 182.859375 307.582031 183.199219 307.285156 183.492188 C 306.988281 183.789062 306.648438 184.015625 306.261719 184.175781 C 305.875 184.335938 305.472656 184.417969 305.054688 184.417969 C 304.636719 184.417969 304.238281 184.335938 303.851562 184.175781 C 303.464844 184.015625 303.125 183.789062 302.828125 183.492188 C 302.53125 183.199219 302.304688 182.859375 302.144531 182.472656 C 301.984375 182.085938 301.90625 181.683594 301.90625 181.265625 C 301.90625 180.847656 301.984375 180.445312 302.144531 180.058594 C 302.304688 179.671875 302.53125 179.332031 302.828125 179.039062 C 303.125 178.742188 303.464844 178.515625 303.851562 178.355469 C 304.238281 178.195312 304.636719 178.113281 305.054688 178.113281 C 305.472656 178.113281 305.875 178.195312 306.261719 178.355469 C 306.648438 178.515625 306.988281 178.742188 307.285156 179.039062 Z M 307.285156 179.039062"/><path fill="#000" fill-opacity="1" fill-rule="nonzero" d="M 36.277344 96.140625 C 36.574219 96.433594 36.800781 96.777344 36.960938 97.164062 C 37.121094 97.546875 37.199219 97.949219 37.199219 98.367188 C 37.199219 98.785156 37.121094 99.1875 36.960938 99.574219 C 36.800781 99.960938 36.574219 100.300781 36.277344 100.597656 C 35.980469 100.890625 35.640625 101.121094 35.253906 101.28125 C 34.867188 101.441406 34.46875 101.519531 34.050781 101.519531 C 33.632812 101.519531 33.230469 101.441406 32.84375 101.28125 C 32.457031 101.121094 32.117188 100.890625 31.820312 100.597656 C 31.527344 100.300781 31.296875 99.960938 31.136719 99.574219 C 30.976562 99.1875 30.898438 98.785156 30.898438 98.367188 C 30.898438 97.949219 30.976562 97.546875 31.136719 97.164062 C 31.296875 96.777344 31.523438 96.433594 31.820312 96.140625 C 32.117188 95.84375 32.457031 95.617188 32.84375 95.457031 C 33.230469 95.296875 33.632812 95.21875 34.050781 95.21875 C 34.46875 95.21875 34.867188 95.296875 35.253906 95.457031 C 35.640625 95.617188 35.980469 95.84375 36.277344 96.140625 Z M 36.277344 96.140625"/><path fill="#000" fill-opacity="1" fill-rule="nonzero" d="M 85.566406 47.695312 C 85.859375 47.992188 86.089844 48.332031 86.25 48.71875 C 86.410156 49.105469 86.488281 49.507812 86.488281 49.925781 C 86.488281 50.34375 86.410156 50.742188 86.25 51.128906 C 86.089844 51.515625 85.859375 51.855469 85.566406 52.152344 C 85.269531 52.449219 84.929688 52.675781 84.542969 52.835938 C 84.15625 52.996094 83.753906 53.074219 83.335938 53.074219 C 82.917969 53.074219 82.519531 52.996094 82.132812 52.835938 C 81.746094 52.675781 81.40625 52.449219 81.109375 52.152344 C 80.8125 51.855469 80.585938 51.515625 80.425781 51.128906 C 80.265625 50.742188 80.1875 50.34375 80.1875 49.925781 C 80.1875 49.507812 80.265625 49.105469 80.425781 48.71875 C 80.585938 48.332031 80.8125 47.992188 81.109375 47.695312 C 81.40625 47.398438 81.746094 47.171875 82.132812 47.011719 C 82.515625 46.851562 82.917969 46.773438 83.335938 46.773438 C 83.753906 46.773438 84.15625 46.851562 84.542969 47.011719 C 84.929688 47.171875 85.269531 47.398438 85.566406 47.695312 Z M 85.566406 47.695312"/><path fill="#000" fill-opacity="1" fill-rule="nonzero" d="M 298.117188 103.765625 C 298.414062 104.058594 298.640625 104.402344 298.800781 104.785156 C 298.960938 105.171875 299.039062 105.574219 299.039062 105.992188 C 299.039062 106.410156 298.960938 106.8125 298.800781 107.199219 C 298.640625 107.585938 298.414062 107.925781 298.117188 108.222656 C 297.820312 108.515625 297.480469 108.742188 297.09375 108.902344 C 296.710938 109.0625 296.308594 109.144531 295.890625 109.144531 C 295.472656 109.144531 295.070312 109.0625 294.683594 108.902344 C 294.296875 108.742188 293.957031 108.515625 293.660156 108.222656 C 293.367188 107.925781 293.136719 107.585938 292.976562 107.199219 C 292.816406 106.8125 292.738281 106.410156 292.738281 105.992188 C 292.738281 105.574219 292.816406 105.171875 292.976562 104.785156 C 293.136719 104.402344 293.367188 104.058594 293.660156 103.765625 C 293.957031 103.46875 294.296875 103.242188 294.683594 103.082031 C 295.070312 102.921875 295.472656 102.839844 295.890625 102.839844 C 296.308594 102.839844 296.710938 102.921875 297.09375 103.082031 C 297.480469 103.242188 297.820312 103.46875 298.117188 103.765625 Z M 298.117188 103.765625"/><g clip-path="url(#3a12017ff5)"><g clip-path="url(#352e916b47)"><path fill="#000" fill-opacity="1" fill-rule="nonzero" d="M 26.816406 37.347656 L 70.96875 37.347656 L 70.96875 81.5 L 26.816406 81.5 Z M 26.816406 37.347656"/></g></g><g clip-path="url(#2f8bab1c0f)"><g clip-path="url(#125d826770)"><path fill="#cbac38" fill-opacity="1" fill-rule="nonzero" d="M 40.996094 51.527344 L 56.789062 51.527344 L 56.789062 67.320312 L 40.996094 67.320312 Z M 40.996094 51.527344"/></g></g><path fill="#000" fill-opacity="1" fill-rule="nonzero" d="M 109.398438 296.332031 C 109.691406 296.628906 109.921875 296.96875 110.082031 297.355469 C 110.238281 297.742188 110.320312 298.144531 110.320312 298.5625 C 110.320312 298.980469 110.242188 299.382812 110.082031 299.765625 C 109.921875 300.152344 109.691406 300.492188 109.398438 300.789062 C 109.101562 301.085938 108.761719 301.3125 108.375 301.472656 C 107.988281 301.632812 107.585938 301.710938 107.167969 301.710938 C 106.75 301.710938 106.347656 301.632812 105.964844 301.472656 C 105.578125 301.3125 105.234375 301.085938 104.941406 300.789062 C 104.644531 300.492188 104.417969 300.152344 104.257812 299.765625 C 104.097656 299.382812 104.015625 298.980469 104.015625 298.5625 C 104.015625 298.144531 104.097656 297.742188 104.257812 297.355469 C 104.417969 296.96875 104.644531 296.628906 104.941406 296.332031 C 105.234375 296.039062 105.578125 295.808594 105.960938 295.648438 C 106.347656 295.488281 106.75 295.410156 107.167969 295.410156 C 107.585938 295.410156 107.988281 295.488281 108.375 295.648438 C 108.761719 295.808594 109.101562 296.039062 109.398438 296.332031 Z M 109.398438 296.332031"/><path fill="#000" fill-opacity="1" fill-rule="nonzero" d="M 201.367188 30.96875 C 201.664062 31.265625 201.890625 31.605469 202.050781 31.992188 C 202.210938 32.378906 202.289062 32.78125 202.289062 33.199219 C 202.289062 33.617188 202.210938 34.019531 202.050781 34.40625 C 201.890625 34.789062 201.664062 35.132812 201.367188 35.425781 C 201.070312 35.722656 200.730469 35.949219 200.34375 36.109375 C 199.957031 36.269531 199.554688 36.351562 199.136719 36.351562 C 198.722656 36.351562 198.320312 36.269531 197.933594 36.109375 C 197.546875 35.949219 197.207031 35.722656 196.910156 35.425781 C 196.613281 35.132812 196.386719 34.789062 196.226562 34.40625 C 196.066406 34.019531 195.988281 33.617188 195.988281 33.199219 C 195.988281 32.78125 196.066406 32.378906 196.226562 31.992188 C 196.386719 31.605469 196.613281 31.265625 196.910156 30.96875 C 197.207031 30.675781 197.546875 30.449219 197.933594 30.289062 C 198.320312 30.128906 198.71875 30.046875 199.136719 30.046875 C 199.554688 30.046875 199.957031 30.128906 200.34375 30.289062 C 200.730469 30.445312 201.070312 30.675781 201.367188 30.96875 Z M 201.367188 30.96875"/><g clip-path="url(#78ae04a1f0)"><path fill="#000" fill-opacity="1" fill-rule="nonzero" d="M 269.289062 229.1875 C 281.664062 229.1875 292.519531 237.675781 298.65625 250.464844 L 298.65625 244.101562 C 290.414062 231.917969 277.371094 224.054688 262.707031 224.054688 C 237.8125 224.054688 217.621094 246.726562 217.621094 274.695312 C 217.621094 302.660156 237.8125 325.332031 262.707031 325.332031 C 277.371094 325.332031 290.414062 317.472656 298.65625 305.289062 L 298.65625 298.921875 C 292.519531 311.714844 281.664062 320.199219 269.289062 320.199219 C 250.148438 320.199219 234.613281 299.832031 234.613281 274.695312 C 234.613281 249.558594 250.128906 229.1875 269.289062 229.1875 Z M 269.289062 229.1875"/></g><path fill="#000" fill-opacity="1" fill-rule="nonzero" d="M 252.691406 249.34375 L 252.691406 274.667969 C 255.570312 275.242188 256.242188 276.585938 257.394531 277.640625 C 258.542969 278.695312 259.601562 279.65625 261.136719 279.65625 C 262.667969 279.65625 263.53125 278.984375 264.777344 277.640625 C 265.558594 276.65625 266.507812 275.886719 267.636719 275.332031 C 268.761719 274.777344 269.953125 274.492188 271.207031 274.476562 C 274.5625 274.476562 276.289062 276.203125 277.632812 277.640625 C 278.144531 278.3125 278.785156 278.824219 279.550781 279.175781 L 279.550781 249.34375 Z M 271.109375 278.3125 C 269.574219 278.3125 268.710938 278.984375 267.464844 280.328125 C 266.6875 281.3125 265.734375 282.082031 264.609375 282.632812 C 263.480469 283.1875 262.292969 283.472656 261.039062 283.492188 C 257.679688 283.492188 255.953125 281.765625 254.613281 280.328125 C 254.097656 279.65625 253.460938 279.144531 252.691406 278.792969 L 252.691406 282.53125 C 252.738281 283.355469 252.859375 284.167969 253.058594 284.964844 C 253.253906 285.765625 253.523438 286.542969 253.867188 287.289062 C 254.210938 288.039062 254.617188 288.75 255.09375 289.425781 C 255.566406 290.097656 256.101562 290.722656 256.691406 291.296875 C 257.285156 291.871094 257.921875 292.382812 258.609375 292.835938 C 259.296875 293.292969 260.019531 293.679688 260.78125 294 C 261.539062 294.316406 262.324219 294.5625 263.128906 294.738281 C 263.933594 294.910156 264.75 295.007812 265.570312 295.027344 C 266.394531 295.050781 267.214844 294.992188 268.027344 294.863281 C 268.839844 294.730469 269.636719 294.523438 270.410156 294.242188 C 271.183594 293.964844 271.925781 293.613281 272.636719 293.195312 C 273.347656 292.777344 274.011719 292.296875 274.632812 291.753906 C 275.25 291.210938 275.816406 290.613281 276.324219 289.964844 C 276.832031 289.316406 277.277344 288.628906 277.65625 287.898438 C 278.035156 287.167969 278.34375 286.40625 278.582031 285.617188 C 278.820312 284.828125 278.984375 284.023438 279.070312 283.207031 C 276.960938 282.726562 275.8125 281.382812 274.660156 280.328125 C 273.414062 278.984375 272.644531 278.3125 271.109375 278.3125 Z M 264.203125 297.304688 L 264.203125 320.328125 L 257.007812 320.328125 C 256.753906 320.328125 256.511719 320.375 256.273438 320.472656 C 256.039062 320.570312 255.832031 320.707031 255.652344 320.886719 C 255.472656 321.066406 255.335938 321.277344 255.238281 321.511719 C 255.140625 321.746094 255.089844 321.992188 255.089844 322.246094 C 255.089844 322.5 255.140625 322.742188 255.238281 322.980469 C 255.335938 323.214844 255.472656 323.421875 255.652344 323.601562 C 255.832031 323.78125 256.039062 323.917969 256.273438 324.015625 C 256.511719 324.113281 256.753906 324.164062 257.007812 324.164062 L 275.234375 324.164062 C 275.488281 324.164062 275.734375 324.113281 275.96875 324.015625 C 276.203125 323.917969 276.410156 323.78125 276.589844 323.601562 C 276.769531 323.421875 276.910156 323.214844 277.007812 322.980469 C 277.105469 322.742188 277.152344 322.5 277.152344 322.246094 C 277.152344 321.992188 277.105469 321.746094 277.007812 321.511719 C 276.910156 321.277344 276.769531 321.066406 276.589844 320.886719 C 276.410156 320.707031 276.203125 320.570312 275.96875 320.472656 C 275.734375 320.375 275.488281 320.328125 275.234375 320.328125 L 268.039062 320.328125 L 268.039062 297.304688 Z M 264.203125 297.304688"/></svg>