<?xml version="1.0" encoding="UTF-8"?><svg id="Layer_1" xmlns="http://www.w3.org/2000/svg" viewBox="0 0 79.83 79.97"><path d="M22.25,70.54l-.14-.02.15.02c13.86,7.46,31.82,4.48,41.27-8.81-9.84,9.61-25.53,12.26-37.67,5.96,8.72-7.34,15-12.8,16.1-13.9.81-.81,1.38-1.73,1.38-1.73.44-.7.73-1.36.86-1.74.84-2.44-.43-5.18-.52-5.37-.91-1.9-2.81-3.85-5.57-4.4-3.86-.77-6.65,1.73-6.92,1.99-2.02-.76-4.04-1.52-6.06-2.28-.05-.43-.11-.88-.18-1.35-.08-.51-.18-.99-.28-1.44,1.68-1.39,3.36-2.77,5.04-4.16,1.25.86,3.71,2.29,7.12,2.71,1.56.19,6.26.53,10.79-2.56,1.1-.75,4.44-3.24,5.96-7.9,1.74-5.33-.04-9.95-.95-11.82h0c-.17-.35-.31-.61-.39-.75.64.49,1.28.98,1.92,1.48l.5.43c1.87,1.66,3.93,3.96,5.53,7.06l.02.04c.57,1.1.86,2.31.86,3.52s-.32,2.05-.85,3.52c-.65,1.79-1.33,3.08-1.51,3.41-2.57,4.81-4.12,7.72-7.03,11.35-1.81,2.26-3.46,4-3.43,3.97,1.01-.98,2.16-2.34,3.17-3.34,8.08-8.07,11-12.2,16.77-19.54,15.02-19.11,11.68-22.45,10.43-23.7-1.73-1.74-5.22-2.7-16.86,5.35-.04.02-.09.06-.14.09h0c-1.75,1.22-3.6,2.58-5.51,4.06-5.14-2.92-10.96-4.45-16.92-4.45-18.99,0-34.41,15.42-34.41,34.39,0,6.48,1.81,12.78,5.24,18.22,2.21,3.56,5.09,6.71,8.43,9.23-.02.01-.03.02-.05.04,0,0,.02.01.02.02-4.2,3.57-8.63,7.14-13.55,9.36-8.07,3.57.73-10.93,2.09-13.17-2.03,2.65-4.01,5.35-5.58,8.37-.78,1.68-1.63,3.22-1.31,5.25.56,2.44,3.71,2.22,5.49,1.63,6.14-2.01,11.32-5.52,16.54-9.06M36.71,54.55c-.67,0-1.3-.11-1.9-.32-.03,0-.06-.02-.09-.03-2.24-.82-3.84-2.97-3.84-5.49v-.18c-1.96-.74-5.77-2.17-8.3-3.12l-1.13-.43c-1.46,2.32-4.04,3.86-6.97,3.86-1.68,0-3.24-.5-4.55-1.38-2.22-1.47-3.68-4-3.68-6.85s1.47-5.39,3.7-6.86c1.3-.86,2.86-1.36,4.53-1.36,1.96,0,3.75.68,5.17,1.83l7.94-6.55c-1.32-2.05-2.07-4.49-2.07-7.09,0-2.94.96-5.65,2.58-7.84,2.41-3.27,6.29-5.39,10.66-5.39s7.89,1.93,10.31,4.95c4.38,5.59,3.61,13.67-1.61,18.23-5.02,4.4-12.76,4.31-17.79-.33l-7.94,6.56c.3.56.68,1.44.87,2.58.17,1.08.09,1.98,0,2.6,3.1,1.16,6.2,2.33,9.29,3.49,1.25-1.79,3.38-2.75,5.52-2.49,2.27.27,4.18,1.87,4.88,4.07.03.1.06.21.08.31.11.46.17.93.17,1.42,0,3.22-2.62,5.84-5.84,5.84" fill="#d05f4e"/></svg>