<?xml version="1.0" encoding="UTF-8"?><svg id="Layer_1" xmlns="http://www.w3.org/2000/svg" viewBox="0 0 366.35 76.41"><path d="M93.79,48.37l-3.41,19.21h-4.34l4.15-23.66c.29-1.69,1.4-2.72,2.83-2.72.68,0,1.18.25,1.75.93l15.13,18.49,3.4-19.32h4.34l-4.19,23.87c-.32,1.72-1.58,2.73-2.76,2.73-.75,0-1.4-.32-1.9-.97l-15.02-18.57h.02Z" fill="#fff"/><polygon points="125.81 67.58 129.61 46.07 119.72 46.07 120.51 41.52 144.84 41.52 144.05 46.07 134.16 46.07 130.36 67.58 125.81 67.58" fill="#fff"/><polygon points="143.53 67.58 148.12 41.52 152.66 41.52 148.08 67.58 143.53 67.58" fill="#fff"/><path d="M160.49,48.37l-3.41,19.21h-4.33l4.16-23.66c.28-1.69,1.39-2.72,2.83-2.72.68,0,1.18.25,1.76.93l15.12,18.49,3.4-19.32h4.34l-4.19,23.87c-.32,1.72-1.58,2.73-2.76,2.73-.75,0-1.4-.32-1.9-.97l-15.02-18.57h0Z" fill="#fff"/><path d="M211.32,67.58l-2.76-6.56h-12.33l2.8-3.69h7.99l-4.09-9.75-15.34,20h-5.2l19.39-24.95c.68-.89,1.47-1.47,2.48-1.47s1.54.57,1.93,1.47l10.61,24.95h-5.48Z" fill="#fff"/><path d="M214.06,41.52h5.56l8.28,20.07,15.34-20.07h5.23l-19.42,24.94c-.68.9-1.51,1.47-2.44,1.47-1.01,0-1.58-.57-1.97-1.47l-10.57-24.94h0Z" fill="#fff"/><path d="M246.69,67.58l4.59-26.06h23.26l-.79,4.55h-18.74l-3.01,16.95h18.78l-.79,4.55h-23.3,0ZM256.55,56.25l.68-3.83h14.45l-.68,3.83h-14.45Z" fill="#fff"/><path d="M298.1,67.58l-5.31-7.24h-9.75l.68-4.01h10.86c3.94,0,6.06-2.47,6.06-6.31,0-2.62-1.54-3.94-4.23-3.94h-14.19l-3.8,21.51h-4.52l4.59-26.06h18.71c5.16,0,7.99,2.97,7.99,7.67,0,5.13-2.76,8.92-7.1,10.47l6.45,7.92h-6.45.01Z" fill="#fff"/><path d="M306.94,67.58l.79-4.55h19.53c2.79,0,4.48-1.69,4.48-4.05,0-1.79-1.15-2.72-3.26-2.72h-11.97c-4.34,0-6.81-2.58-6.81-6.2,0-4.73,3.55-8.53,9.46-8.53h18.71l-.79,4.55h-18.71c-2.4,0-3.94,1.54-3.94,3.76,0,1.61,1.04,2.58,2.79,2.58h11.93c4.52,0,6.95,2.01,6.95,5.95,0,5.13-3.33,9.21-9.64,9.21h-19.53.01Z" fill="#fff"/><path d="M338.5,67.58l4.59-26.06h23.26l-.79,4.55h-18.74l-3.01,16.95h18.78l-.79,4.55h-23.3ZM348.35,56.25l.68-3.83h14.45l-.68,3.83h-14.45Z" fill="#fff"/><path d="M72.73,42.63c-.39-.89-.93-1.46-1.93-1.46-1.21,0-2.2,1.14-2.47,1.46-5.99,7.04-10.69,16.02-18.89,20.79-1.13.66-2.3,1.23-3.51,1.71-6.86,2.73-14.45,2.26-21.23-.45,8.32-7.01,14.33-12.22,15.38-13.28.77-.78,1.32-1.65,1.32-1.65.42-.67.69-1.3.82-1.66.81-2.33-.41-4.94-.5-5.12-.86-1.82-2.67-3.68-5.32-4.2-3.69-.74-6.35,1.65-6.61,1.9l-5.79-2.19c-.04-.41-.1-.84-.18-1.29-.07-.49-.16-.94-.26-1.38,1.6-1.32,3.21-2.65,4.81-3.97,1.19.82,3.55,2.19,6.8,2.59,1.49.18,5.98.51,10.31-2.45,1.05-.72,4.24-3.09,5.69-7.55,1.67-5.09-.03-9.51-.9-11.29-.16-.33-.3-.58-.37-.72.61.47,1.22.94,1.83,1.41l.47.41c1.79,1.59,3.76,3.79,5.29,6.74l.02.04c.54,1.06.82,2.21.82,3.36,0,1.13-.3,1.97-.81,3.37-.62,1.71-1.27,2.94-1.44,3.25-2.45,4.6-3.93,7.38-6.71,10.85-1.52,1.88-2.91,3.38-3.22,3.73.95-.93,2.02-2.2,2.96-3.13,7.72-7.72,10.51-11.65,16.02-18.67,14.35-18.26,11.17-21.45,9.97-22.64-1.66-1.66-4.99-2.58-16.11,5.12-.04.02-.09.05-.14.08-1.67,1.17-3.44,2.47-5.27,3.88-4.91-2.79-10.47-4.25-16.16-4.25-18.12,0-32.86,14.75-32.86,32.87,0,6.18,1.73,12.21,5.01,17.4,2.11,3.4,4.86,6.41,8.06,8.82-.02.01-.03.02-.05.04h.02c-4.01,3.43-8.24,6.84-12.95,8.96-7.71,3.4.71-10.44,2-12.58-1.94,2.53-3.83,5.1-5.33,7.99-.75,1.6-1.56,3.08-1.25,5.02.53,2.33,3.54,2.12,5.25,1.55,5.86-1.91,10.8-5.27,15.8-8.65l.04-.03s.06.04.1.05c13.23,7.12,30.4,4.28,39.42-8.42,2.93-3.8,5.86-7.61,8.79-11.41l4.09,9.75h-8l-2.8,3.69h12.34l2.76,6.56h5.48s-10.61-24.95-10.61-24.95ZM20.49,42.98c-1.4,2.22-3.86,3.69-6.66,3.69-1.6,0-3.1-.48-4.34-1.32-2.12-1.4-3.52-3.81-3.52-6.54s1.41-5.15,3.53-6.56c1.24-.82,2.73-1.3,4.33-1.3,1.87,0,3.59.65,4.94,1.75l7.59-6.27c-1.26-1.95-1.99-4.28-1.99-6.77,0-2.81.92-5.4,2.47-7.49,2.3-3.13,6.01-5.15,10.18-5.15s7.54,1.84,9.85,4.73c4.19,5.34,3.45,13.06-1.53,17.42-4.8,4.2-12.2,4.11-16.99-.32l-7.58,6.26c.28.54.65,1.38.82,2.46.17,1.03.09,1.9,0,2.48,2.96,1.12,5.92,2.23,8.88,3.34,1.19-1.71,3.22-2.63,5.27-2.38,2.17.26,3.99,1.79,4.66,3.89.03.09.06.19.08.29.11.44.17.89.17,1.36,0,3.07-2.5,5.58-5.58,5.58-.64,0-1.25-.11-1.82-.31-.03,0-.06,0-.09-.02-2.14-.79-3.67-2.84-3.67-5.25,0-.06,0-.12.01-.18-1.88-.7-5.51-2.07-7.94-2.98,0,0-1.07-.41-1.07-.41Z" fill="#d05f4e"/></svg>